<?xml version="1.0" encoding="iso-8859-1"?>
<!-- Generator: Adobe Illustrator 16.0.0, SVG Export Plug-In . SVG Version: 6.00 Build 0)  -->
<!DOCTYPE svg PUBLIC "-//W3C//DTD SVG 1.1//EN" "http://www.w3.org/Graphics/SVG/1.1/DTD/svg11.dtd">
<svg version="1.1" id="Capa_1" xmlns="http://www.w3.org/2000/svg" xmlns:xlink="http://www.w3.org/1999/xlink" x="0px" y="0px"
	 width="26px" height="26px" viewBox="0 0 26 26" style="enable-background:new 0 0 26 26;" xml:space="preserve">
<g>
	<g>
		<path d="M13,0C5.832,0,0,5.832,0,13s5.832,13,13,13s13-5.832,13-13S20.168,0,13,0z M1,13c0-2.317,0.672-4.476,1.813-6.313
			C2.855,6.86,2.918,6.985,3.01,6.985c0.201,0,0.603-0.684,0.603-0.684s0.886-0.604,0.845,0.041C4.419,6.985,4.539,7.67,4.539,8.071
			c0,0.403,0.724,1.369,0.724,1.127c0-0.241,0.324-0.925,0.324-1.288c0-0.362,0.2-0.201,0.723,0.161
			c0.524,0.362,0.886,1.087,0.886,1.087S7.719,9.64,7.799,9.843c0.084,0.201,0.646-0.08,0.766-0.322
			c0.12-0.241,0.2-0.362,0.524-0.442c0.322-0.082,0.726-0.082,0.846-0.522c0.121-0.443,0.482-0.967,0-1.572
			C9.45,6.382,9.211,5.98,8.847,5.698C8.486,5.416,8.204,4.691,8.204,4.691s0.765-0.685,1.007-0.926
			c0.238-0.242,0.604-0.08,0.643,0.201c0.039,0.282-0.36,0.523-0.442,1.128s0.481,0.804,0.645,0.604
			c0.158-0.203,0.563-0.685,0.563-0.805c0-0.121-0.283-0.082-0.322-0.523c-0.041-0.442,0.521-0.766,0.725-0.644
			c0.201,0.12,1.488-0.16,2.092-0.483c0.604-0.321,0.966-1.005,1.328-1.288c0.174-0.135,0.545-0.419,0.881-0.725
			C20.83,2.314,25,7.178,25,13c0,0.678-0.07,1.338-0.18,1.984c-0.086-0.047-0.166-0.094-0.276-0.148
			c-0.646-0.322-2.095-0.322-2.134-0.122c-0.039,0.201,0,0-0.482-0.161c-0.484-0.16-0.846,0-0.967-0.281
			c-0.119-0.281-0.4-0.363-0.766,0c-0.301,0.302-0.44,0.321,0.242,0.442c0.684,0.122,0.889,0.122,0.604,0.442
			c-0.282,0.322-0.483,0.725-0.241,0.765c0.241,0.041,0.967-0.161,1.045,0c0.081,0.161-0.16,0.201,0.646,0.321
			c0.806,0.122,0.967,0.404,1.127,0.564c0.159,0.161,0.646,0.685,0.321,0.685c-0.321,0-0.684,0.401-0.442,0.442
			c0.096,0.017,0.267,0,0.437-0.017c-0.308,0.683-0.674,1.33-1.098,1.937c-0.229-0.259-1.271-0.028-1.393-0.028
			c-0.117,0-0.361-0.402-0.603-0.402s-0.202,0.804-0.202,0.804s-0.24-0.281-0.603-0.644c-0.365-0.362,0.036,0.242-0.323,0.604
			c-0.361,0.362-0.24,0.242-0.402,0.645c-0.16,0.402-0.521,0.242-0.885-0.162c-0.363-0.4-0.564-0.12-0.807,0
			c-0.24,0.121-0.443,0.807-0.562,0.965c-0.121,0.161-0.968,0.363-1.168,0.565c-0.201,0.2-0.281,0.846-0.281,1.006
			s-0.846,0.081-1.127,0.28c-0.281,0.201-0.725,0.082-1.004,0.082c-0.285,0-1.249,0.764-1.569,0.966
			c-0.12,0.075-0.195,0.222-0.234,0.387C5.679,24.259,1,19.167,1,13z"/>
		<path d="M15.125,3.484c0.482-0.04,1.007-1.408,0.482-1.328C15.012,2.249,14.641,3.524,15.125,3.484z"/>
		<path d="M8.402,15.479c0.203-0.242,0.12-0.604-0.199-0.562c-0.321,0.041-0.604-0.523-1.127-0.887
			c-0.522-0.363-0.927-0.604-1.409-1.126c-0.481-0.523-1.087-0.846-1.408-1.127c-0.323-0.282-0.807-0.403-1.007-0.363
			c-0.501,0.101,0.725,0.967,0.846,1.088c0.12,0.121,1.207,1.046,1.207,1.49c0,0.442,0.724,1.487,0.925,1.649
			c0.2,0.161,1.207,0.766,1.37,1.086c0.16,0.321,0.523,0.403,0.523-0.041C8.123,16.242,8.203,15.721,8.402,15.479z"/>
		<path d="M5.346,10.93c0.2,0.726,0.604,1.45,0.763,1.731c0.16,0.283,0.846,0.684,1.087,0.885c0.241,0.201,0.603-0.08,0.443-0.321
			c-0.161-0.241-0.483-0.604-0.522-0.885c-0.04-0.283-0.243-0.727-0.563-1.208c-0.324-0.483-0.604-0.603-0.807-0.925
			C5.546,9.884,4.819,9.281,4.819,9.281c-0.32,0.041-0.32,0.644-0.159,0.846C4.819,10.328,5.145,10.207,5.346,10.93z"/>
		<path d="M12.39,18.055c0.041-0.24-0.441-0.604-0.646-0.604c-0.201,0-1.207-0.241-1.207-0.241
			c-0.186,0.079-0.435,0.142-0.497,0.255c-0.016-0.041-0.056-0.084-0.148-0.134c-0.443-0.241-0.965,0-1.128-0.321
			c-0.158-0.322-0.401-0.322-0.561-0.121c-0.294,0.367,0.078,0.644,0.199,0.725c0.12,0.08,0.565,0.16,0.968,0.121
			c0.259-0.026,0.579-0.086,0.661-0.188c0.01,0.043,0.037,0.09,0.103,0.147c0.324,0.281,0.522,0.401,1.006,0.361
			C11.622,18.016,12.348,18.296,12.39,18.055z"/>
		<path d="M14.48,18.539c-0.09,0.359,0.604,0.523,0.645,0.121C15.165,18.256,14.562,18.216,14.48,18.539z"/>
		<path d="M17.257,17.895c-0.241,0.321-0.683,0.645-0.641,0.926c0.062,0.439,0.882-0.242,0.882-0.242s0.646-0.08,0.646-0.362
			C18.145,17.936,17.498,17.572,17.257,17.895z"/>
		<path d="M14.439,15.882c0.322,0.201,0.927-0.684,1.088-0.403c0.16,0.282-0.041,0.403,0.24,0.765
			c0.283,0.362,0.807,0.323,0.807,0.323s-0.041-0.967-0.484-1.209c-0.441-0.24-0.724-0.521-0.199-0.44
			c0.523,0.08,0.805-0.122,0.685-0.362c-0.12-0.242-0.886-0.121-1.127-0.08c-0.242,0.039-0.603-0.162-0.603-0.162
			c-0.244,0.08-0.205,0.282-0.283,0.685C14.48,15.398,14.118,15.682,14.439,15.882z"/>
		<path d="M17.338,13.345c-0.161,0-1.286,0.202-1.406,0.243c-0.121,0.04-0.848-0.081-0.848-0.081
			c-0.279,0.282-0.078,0.563,0.363,0.523c0.441-0.039,1.367-0.161,1.568-0.161C17.218,13.869,17.498,13.345,17.338,13.345z"/>
		<path d="M18.629,14.393c0.48,0.121,0.844-1.328,0.561-1.448C18.82,12.785,18.145,14.271,18.629,14.393z"/>
		<path d="M11.222,15.682c0.201,0,0.603,0,0.886,0.08c0.282,0.08,1.208,0.161,1.166-0.201c-0.041-0.361-0.121-0.927,0.283-1.289
			c0.401-0.362,0.805-0.562,0.603-1.086c-0.2-0.523-0.603-0.845-0.322-1.086c0.282-0.242,0.604-0.322,0.604-0.523
			c0-0.202-0.685,0.563-0.766-0.765c-0.016-0.283-0.644,0.08-0.685,0.362c-0.039,0.282,0.444,0.524-0.321,0.524
			c-0.763,0-0.806,0.604-0.966,0.725c-0.161,0.121-0.321,0.16-0.645,0.241c-0.32,0.081-0.403,0.401-0.483,0.604
			c-0.08,0.2-0.643-0.362-0.804-0.203c-0.161,0.162-0.042,0.928,0.242,1.569C10.296,15.277,11.021,15.682,11.222,15.682z"/>
		<path d="M15.566,7.792c-0.2,0.201-0.805,0.604-0.885,0.965c-0.082,0.362,0.967-0.564,1.25-0.925
			c0.28-0.362,0.844-0.161,0.965-0.362c0.119-0.202,0.119-0.202,0.119-0.202s-0.441-0.08-0.804-0.2
			c-0.364-0.122-0.806,0.321-0.604-0.323c0.201-0.643,0.807-0.522,0.685-1.005c-0.119-0.484-0.522-0.604-0.644-0.604
			c-0.282,0,0.039,0.442-0.362,0.725c-0.402,0.28-0.847,0.4-0.604,0.884C14.924,7.228,15.77,7.591,15.566,7.792z"/>
		<path d="M17.016,9.321c-0.16-0.202-0.562-0.846-1.006-0.685c-0.136,0.05-0.482,0.765-0.037,0.765
			C16.414,9.401,17.177,9.522,17.016,9.321z"/>
		<path d="M17.38,8.837c0.726-0.039,0.522-0.765-0.042-0.805C17.177,8.022,16.654,8.878,17.38,8.837z"/>
		<path d="M17.46,9.522c-0.563,0.726-0.522,0.563-0.927,0.403c-0.401-0.161-1.047,0.363-0.926,0.564
			c0.121,0.201,1.009-0.041,1.207,0.321c0.201,0.362,0.201,0.403,0.605,0.322c0.4-0.08,0.805-0.643,0.684-0.925
			C17.984,9.925,17.46,9.522,17.46,9.522z"/>
	</g>
</g>
<g>
</g>
<g>
</g>
<g>
</g>
<g>
</g>
<g>
</g>
<g>
</g>
<g>
</g>
<g>
</g>
<g>
</g>
<g>
</g>
<g>
</g>
<g>
</g>
<g>
</g>
<g>
</g>
<g>
</g>
</svg>
